<svg xmlns="http://www.w3.org/2000/svg" viewBox="0 0 30.782 31.603">
  <defs>
    <style>
      .cls-1 {
        fill: #fff;
      }
    </style>
  </defs>
  <g id="earth" transform="translate(-0.41)">
    <path id="Path_90" data-name="Path 90" class="cls-1" d="M7.7,15.973s5.651-5.625,5.651-10.321a5.651,5.651,0,1,0-11.3,0C2.052,10.614,7.7,15.973,7.7,15.973ZM4.758,5.652A2.945,2.945,0,1,1,7.7,8.6,2.945,2.945,0,0,1,4.758,5.652Z"/>
    <path id="Path_91" data-name="Path 91" class="cls-1" d="M28.59,7.643l-.459.146-2.455.219-.692,1.106-.5-.16L22.53,7.194l-.285-.915L21.868,5.3,20.639,4.2l-1.446-.283-.034.663,1.418,1.384.694.817-.782.408L19.853,7,18.9,6.6l.033-.769-1.25-.514-.415,1.8-1.258.286.125,1.007,1.638.316.284-1.609,1.353.2.629.368h1.011l.69,1.384,1.833,1.859-.134.723-1.478-.189L19.41,12.761l-1.838,2.2-.239.976h-.661l-1.229-.566-1.194.566.3,1.261.52-.6.913-.027-.064,1.132.757.22.756.85,1.234-.347,1.41.222,1.636.441.819.095,1.384,1.573,2.675,1.574L24.857,25.64l-1.826.849-.693,1.889L19.7,30.143l-.282,1.019A15.386,15.386,0,0,0,28.59,7.643Z"/>
    <path id="Path_92" data-name="Path 92" class="cls-1" d="M17.573,24.253l-1.12-2.078,1.028-2.146-1.028-.311L15.3,18.559l-2.56-.573-.85-1.779v1.057h-.375l-1.625-2.2c-.793.949-1.4,1.555-1.47,1.629l-.7.694-.713-.677A24.483,24.483,0,0,1,1.93,9.577,15.363,15.363,0,0,0,15.8,31.6a15.8,15.8,0,0,0,1.931-.135L17.573,29.6s.707-2.77.707-2.863S17.573,24.253,17.573,24.253Z"/>
    <path id="Path_93" data-name="Path 93" class="cls-1" d="M14.586,3.768l1.133.187,2.75-.258.756-.834,1.068-.714,1.512.228.551-.083A15.151,15.151,0,0,0,12.612,1.16a6.647,6.647,0,0,1,1.622,3.163Zm1.867-1.425,1.573-.865,1.009.582L17.573,3.173l-1.394.141-.629-.407Z"/>
  </g>
</svg>
